<svg width="50" height="50" viewBox="0 0 50 50" fill="none" xmlns="http://www.w3.org/2000/svg">
<path d="M43.2877 6.11904L42.3733 5.20464C40.3921 3.22345 37.0393 3.22345 35.0581 5.20464L33.2293 7.03344C30.0289 5.50944 26.3713 4.89985 22.5614 5.35704C13.5698 6.42384 6.40702 13.5866 5.34022 22.5782C3.96863 34.6177 13.265 44.8285 24.9997 44.8285C28.3525 44.8285 31.5529 44.0665 34.2961 42.5425L37.6489 45.8953C37.8013 46.0477 37.9537 46.2001 38.1061 46.2001H38.2585H38.4109C38.5633 46.2001 38.5633 46.2001 38.7157 46.2001C38.8681 46.2001 38.8681 46.2001 39.0205 46.2001H39.1729H39.3253C39.4777 46.2001 39.6301 46.0477 39.7825 45.8953C39.9349 45.7429 40.0873 45.5905 40.0873 45.4381V45.2857V45.1333V44.9809V37.8181C42.9829 34.3129 44.6593 29.8933 44.6593 25.169C44.6593 21.359 43.5925 18.0062 41.7637 14.9582L43.2877 13.4342C45.2689 11.453 45.2689 8.10023 43.2877 6.11904ZM40.2397 26.5406H41.7637C41.3065 31.5697 38.5633 35.9893 34.6009 38.7325C33.9913 39.1897 33.3817 39.4945 32.7721 39.7993C30.9433 40.7137 28.8097 41.4757 26.6761 41.6281V40.1041C26.6761 39.3421 25.9141 38.5801 25.1521 38.5801C24.3901 38.5801 23.6281 39.3421 23.6281 40.1041V41.6281C15.551 40.8661 9.15021 34.4653 8.38821 26.3882H9.9122C10.6742 26.3882 11.4362 25.6262 11.4362 24.8642C11.4362 24.1022 10.6742 23.3402 9.9122 23.3402H8.23581C8.99781 15.4154 15.3986 9.01463 23.4757 8.25263V9.77663C23.4757 10.5386 24.2377 11.3006 24.9997 11.3006C25.7617 11.3006 26.5237 10.5386 26.5237 9.77663V8.25263C34.6009 9.01463 41.0017 15.4154 41.7637 23.4926H40.2397C39.4777 23.4926 38.7157 24.2546 38.7157 25.0166C38.7157 25.7786 39.4777 26.5406 40.2397 26.5406Z" fill="#FCC822"/>
<path d="M25 11.3006V5.20464C22.1044 5.20464 19.2089 5.81424 16.7705 7.03344L14.9417 5.20464C12.9605 3.22345 9.60769 3.22345 7.6265 5.20464L6.7121 6.11904C4.73091 8.10023 4.73091 11.453 6.7121 13.4342L8.0837 14.8058C6.25491 17.8538 5.18811 21.2066 5.18811 25.0166C5.18811 29.7409 6.8645 34.1605 9.76009 37.6657V44.8285C9.76009 44.9809 9.76009 45.1333 9.76009 45.2857V45.4381C9.76009 45.4381 9.76009 45.4381 9.76009 45.5905C9.76009 45.7429 9.91249 45.8953 10.0649 46.0477C10.2173 46.2001 10.3697 46.2001 10.5221 46.3525C10.5221 46.3525 10.5221 46.3525 10.6745 46.3525H10.8269C10.9793 46.3525 11.1317 46.3525 11.2841 46.3525C11.4365 46.3525 11.5889 46.3525 11.7413 46.3525H11.8937C11.8937 46.3525 11.8937 46.3525 12.0461 46.3525C12.1985 46.3525 12.3509 46.2001 12.5033 46.0477L15.8561 42.6949C18.5993 44.2189 21.7996 44.9809 25.1524 44.9809V38.8849C24.3904 38.8849 23.6284 39.6469 23.6284 40.4089V41.9329C21.3424 41.7805 19.3613 41.1709 17.5325 40.1041C16.9229 39.7993 16.3133 39.3421 15.7037 39.0373C11.7413 36.2941 8.9981 31.8745 8.5409 26.8454H10.0649C10.8269 26.8454 11.5889 26.0834 11.5889 25.3214C11.5889 24.5594 10.8269 23.7974 10.0649 23.7974H8.2361C8.9981 15.4154 15.3989 9.01463 23.476 8.25263V9.77663C23.476 10.5386 24.238 11.3006 25 11.3006Z" fill="#FCC822"/>
</svg>
